<mxfile><diagram id="AfCN-AF9MjH9aCa2j-An" name="ページ1"><mxGraphModel dx="1754" dy="1423" grid="0" gridSize="10" guides="1" tooltips="1" connect="1" arrows="1" fold="1" page="1" pageScale="1" pageWidth="1920" pageHeight="1200" background="none" math="0" shadow="0"><root><mxCell id="0"/><mxCell id="261" style="locked=1;" parent="0"/><mxCell id="534" value="" style="rounded=0;whiteSpace=wrap;html=1;imageWidth=1920;fillColor=none;strokeColor=none;" parent="261" vertex="1"><mxGeometry x="1" width="1919" height="1200" as="geometry"/></mxCell><mxCell id="691" value="" style="rounded=0;whiteSpace=wrap;html=1;labelBackgroundColor=none;fontSize=20;fontColor=#FF0000;strokeColor=none;strokeWidth=1;fillColor=#81B5A1;opacity=20;" parent="261" vertex="1"><mxGeometry x="467" y="160" width="681" height="1004" as="geometry"/></mxCell><mxCell id="689" value="" style="endArrow=none;dashed=1;html=1;labelBackgroundColor=none;fontSize=20;fontColor=#FF0000;strokeColor=#333333;strokeWidth=2;bendable=1;movable=1;exitX=0.48;exitY=0.2;exitDx=0;exitDy=0;exitPerimeter=0;entryX=0.885;entryY=0.977;entryDx=0;entryDy=0;entryPerimeter=0;" parent="261" edge="1"><mxGeometry width="50" height="50" relative="1" as="geometry"><mxPoint x="201" y="333" as="sourcePoint"/><mxPoint x="201.15499999999975" y="1172.4" as="targetPoint"/></mxGeometry></mxCell><mxCell id="688" value="" style="endArrow=none;dashed=1;html=1;labelBackgroundColor=none;fontSize=20;fontColor=#FF0000;strokeColor=#333333;strokeWidth=2;bendable=1;movable=1;exitX=0.48;exitY=0.2;exitDx=0;exitDy=0;exitPerimeter=0;entryX=0.885;entryY=0.977;entryDx=0;entryDy=0;entryPerimeter=0;" parent="261" edge="1"><mxGeometry width="50" height="50" relative="1" as="geometry"><mxPoint x="593.9999999999998" y="333" as="sourcePoint"/><mxPoint x="594.1549999999995" y="1172.4" as="targetPoint"/></mxGeometry></mxCell><mxCell id="690" value="" style="endArrow=none;dashed=1;html=1;labelBackgroundColor=none;fontSize=20;fontColor=#FF0000;strokeColor=#333333;strokeWidth=2;bendable=1;movable=1;exitX=0.48;exitY=0.2;exitDx=0;exitDy=0;exitPerimeter=0;entryX=0.885;entryY=0.977;entryDx=0;entryDy=0;entryPerimeter=0;" parent="261" edge="1"><mxGeometry width="50" height="50" relative="1" as="geometry"><mxPoint x="1369" y="333" as="sourcePoint"/><mxPoint x="1369.1549999999997" y="1172.4" as="targetPoint"/></mxGeometry></mxCell><mxCell id="687" value="" style="endArrow=none;dashed=1;html=1;labelBackgroundColor=none;fontSize=20;fontColor=#FF0000;strokeColor=#333333;strokeWidth=2;bendable=1;movable=1;exitX=0.48;exitY=0.2;exitDx=0;exitDy=0;exitPerimeter=0;entryX=0.885;entryY=0.977;entryDx=0;entryDy=0;entryPerimeter=0;" parent="261" edge="1"><mxGeometry width="50" height="50" relative="1" as="geometry"><mxPoint x="1704.1599999999999" y="333" as="sourcePoint"/><mxPoint x="1704.3149999999996" y="1172.4" as="targetPoint"/></mxGeometry></mxCell><mxCell id="576" value="" style="shape=umlLifeline;perimeter=lifelinePerimeter;whiteSpace=wrap;html=1;container=1;collapsible=0;recursiveResize=0;outlineConnect=0;labelBackgroundColor=#FFFFFF;fillColor=none;strokeColor=none;strokeWidth=2;size=209;" parent="261" vertex="1"><mxGeometry x="1248" y="128" width="242" height="1025" as="geometry"/></mxCell><mxCell id="577" value="OASE" style="outlineConnect=0;dashed=0;verticalLabelPosition=bottom;verticalAlign=top;align=center;html=1;shape=mxgraph.aws3.traditional_server;gradientColor=none;fontSize=24;fontStyle=1;fontColor=#333333;fillColor=#00BFC2;labelBackgroundColor=#FFFFFF;" parent="576" vertex="1"><mxGeometry x="86.95000000000005" y="64" width="68.1" height="112" as="geometry"/></mxCell><mxCell id="578" value="" style="shape=umlLifeline;perimeter=lifelinePerimeter;whiteSpace=wrap;html=1;container=1;collapsible=0;recursiveResize=0;outlineConnect=0;labelBackgroundColor=#FFFFFF;fillColor=none;strokeColor=none;strokeWidth=2;size=209;" parent="261" vertex="1"><mxGeometry x="1583" y="128" width="242" height="1025" as="geometry"/></mxCell><mxCell id="579" value="ITA" style="outlineConnect=0;dashed=0;verticalLabelPosition=bottom;verticalAlign=top;align=center;html=1;shape=mxgraph.aws3.traditional_server;gradientColor=none;fontSize=24;fontStyle=1;fontColor=#333333;fillColor=#002B62;labelBackgroundColor=#FFFFFF;" parent="578" vertex="1"><mxGeometry x="82" y="65" width="68.1" height="112" as="geometry"/></mxCell><mxCell id="582" value="" style="shape=umlLifeline;perimeter=lifelinePerimeter;whiteSpace=wrap;html=1;container=1;collapsible=0;recursiveResize=0;outlineConnect=0;labelBackgroundColor=#FFFFFF;fillColor=none;strokeColor=none;strokeWidth=2;size=209;" parent="261" vertex="1"><mxGeometry x="79" y="129" width="242" height="1025" as="geometry"/></mxCell><mxCell id="583" value="Service Owner" style="shape=mxgraph.cisco.people.man_woman;html=1;pointerEvents=1;dashed=0;fillColor=#036897;strokeColor=#ffffff;strokeWidth=2;verticalLabelPosition=bottom;verticalAlign=top;align=center;outlineConnect=0;sketch=0;fontFamily=Helvetica;fontSize=24;fontColor=#283C3E;fontStyle=1;labelBackgroundColor=#FFFFFF;" parent="582" vertex="1"><mxGeometry x="72" y="28" width="106" height="155" as="geometry"/></mxCell><mxCell id="594" value="" style="shape=umlLifeline;perimeter=lifelinePerimeter;whiteSpace=wrap;html=1;container=1;collapsible=0;recursiveResize=0;outlineConnect=0;labelBackgroundColor=#FFFFFF;fillColor=none;strokeColor=none;strokeWidth=2;size=209;" parent="261" vertex="1"><mxGeometry x="437" y="129" width="662" height="1025" as="geometry"/></mxCell><mxCell id="758" value="servicenow" style="text;html=1;strokeColor=none;fillColor=none;align=center;verticalAlign=middle;whiteSpace=wrap;rounded=0;fontColor=#292D2E;fontSize=71;fontStyle=1" vertex="1" parent="594"><mxGeometry x="166.5" y="61" width="408" height="77" as="geometry"/></mxCell><mxCell id="695" value="1" style="" parent="0"/><mxCell id="696" value="Create incident" style="html=1;verticalAlign=bottom;endArrow=block;labelBackgroundColor=none;fontSize=20;fontColor=#333333;strokeWidth=2;strokeColor=#333333;entryX=1;entryY=0.134;entryDx=0;entryDy=0;entryPerimeter=0;fontStyle=1" parent="695" target="697" edge="1"><mxGeometry x="-0.169" width="80" relative="1" as="geometry"><mxPoint x="1368" y="370.94600000000014" as="sourcePoint"/><mxPoint x="1018" y="373" as="targetPoint"/><mxPoint x="-1" as="offset"/></mxGeometry></mxCell><mxCell id="697" value="Incident - NEW" style="swimlane;fontStyle=1;align=center;verticalAlign=top;childLayout=stackLayout;horizontal=1;startSize=33;horizontalStack=0;resizeParent=1;resizeParentMax=0;resizeLast=0;collapsible=1;marginBottom=0;labelBackgroundColor=none;fillColor=#283C3E;fontSize=20;strokeColor=#283C3E;separatorColor=#CCCCCC;fontColor=#FFFFFF;" parent="695" vertex="1"><mxGeometry x="829" y="355" width="255" height="119" as="geometry"/></mxCell><mxCell id="698" value="APPROVAL_REQUEST" style="text;strokeColor=none;fillColor=#FFFFFF;align=left;verticalAlign=top;spacingLeft=4;spacingRight=4;overflow=hidden;rotatable=0;points=[[0,0.5],[1,0.5]];portConstraint=eastwest;fontColor=#FF0000;fontSize=20;fontStyle=1" parent="697" vertex="1"><mxGeometry y="33" width="255" height="39" as="geometry"/></mxCell><mxCell id="699" value="" style="line;strokeWidth=1;fillColor=none;align=left;verticalAlign=middle;spacingTop=-1;spacingLeft=3;spacingRight=3;rotatable=0;labelPosition=right;points=[];portConstraint=eastwest;fontStyle=1" parent="697" vertex="1"><mxGeometry y="72" width="255" height="8" as="geometry"/></mxCell><mxCell id="700" value=" " style="text;strokeColor=none;fillColor=#CCCCCC;align=left;verticalAlign=top;spacingLeft=4;spacingRight=4;overflow=hidden;rotatable=0;points=[[0,0.5],[1,0.5]];portConstraint=eastwest;fontColor=#333333;fontSize=20;fontStyle=1" parent="697" vertex="1"><mxGeometry y="80" width="255" height="39" as="geometry"/></mxCell><mxCell id="749" value="" style="html=1;points=[];perimeter=orthogonalPerimeter;labelBackgroundColor=#FFFFFF;strokeColor=#333333;strokeWidth=2;fillColor=#FFFFFF;fontStyle=1" parent="695" vertex="1"><mxGeometry x="1362.5" y="358" width="13" height="751" as="geometry"/></mxCell><mxCell id="701" value="2" style="" parent="0"/><mxCell id="702" value="Confirm work note" style="html=1;verticalAlign=bottom;endArrow=block;labelBackgroundColor=none;fontSize=20;fontColor=#333333;strokeWidth=2;strokeColor=#333333;fontStyle=1;entryX=0;entryY=0.5;entryDx=0;entryDy=0;" parent="701" edge="1"><mxGeometry x="-0.0326" width="80" relative="1" as="geometry"><mxPoint x="593" y="424.5000000000002" as="sourcePoint"/><mxPoint x="829" y="424.4999999999998" as="targetPoint"/><mxPoint as="offset"/></mxGeometry></mxCell><mxCell id="703" value="" style="html=1;points=[];perimeter=orthogonalPerimeter;labelBackgroundColor=#FFFFFF;strokeColor=#333333;strokeWidth=2;fillColor=#FFFFFF;fontStyle=1" parent="701" vertex="1"><mxGeometry x="587.5" y="416" width="13" height="102" as="geometry"/></mxCell><mxCell id="704" value="3" style="" parent="0"/><mxCell id="711" value="Request approval" style="html=1;verticalAlign=bottom;endArrow=block;labelBackgroundColor=none;fontSize=20;fontColor=#333333;strokeWidth=2;strokeColor=#333333;fontStyle=1;" parent="704" edge="1"><mxGeometry x="0.1985" width="80" relative="1" as="geometry"><mxPoint x="586" y="504" as="sourcePoint"/><mxPoint x="199.46153846153857" y="504.4939999999999" as="targetPoint"/><mxPoint x="-1" as="offset"/></mxGeometry></mxCell><mxCell id="705" value="4" style="" parent="0"/><mxCell id="715" value="Case: Approved" style="shape=umlFrame;whiteSpace=wrap;html=1;labelBackgroundColor=none;fontSize=20;fontColor=#FF0000;strokeColor=#333333;strokeWidth=1;fillColor=#FFFFFF;width=161;height=25;fontStyle=1" parent="705" vertex="1"><mxGeometry x="102" y="528" width="1780" height="375" as="geometry"/></mxCell><mxCell id="713" value="" style="html=1;points=[];perimeter=orthogonalPerimeter;labelBackgroundColor=#FFFFFF;strokeColor=#333333;strokeWidth=2;fillColor=#FFFFFF;fontStyle=1" parent="705" vertex="1"><mxGeometry x="587.5" y="595" width="13" height="72" as="geometry"/></mxCell><mxCell id="714" value="Approve" style="html=1;verticalAlign=bottom;endArrow=block;labelBackgroundColor=none;fontSize=20;fontColor=#333333;strokeWidth=2;strokeColor=#333333;entryX=-0.05;entryY=0.012;entryDx=0;entryDy=0;entryPerimeter=0;fontStyle=1" parent="705" target="713" edge="1"><mxGeometry width="80" relative="1" as="geometry"><mxPoint x="200" y="596" as="sourcePoint"/><mxPoint x="749" y="599" as="targetPoint"/></mxGeometry></mxCell><mxCell id="706" value="5" style="" parent="0"/><mxCell id="725" value="Update work note" style="html=1;verticalAlign=bottom;endArrow=block;labelBackgroundColor=none;fontSize=20;fontColor=#333333;strokeWidth=2;strokeColor=#333333;entryX=-0.005;entryY=0.043;entryDx=0;entryDy=0;entryPerimeter=0;fontStyle=1;exitX=0.962;exitY=0.666;exitDx=0;exitDy=0;exitPerimeter=0;" parent="706" target="729" edge="1"><mxGeometry x="-0.0374" width="80" relative="1" as="geometry"><mxPoint x="600.0060000000008" y="642.9519999999998" as="sourcePoint"/><mxPoint x="839" y="390.4999999999998" as="targetPoint"/><mxPoint as="offset"/></mxGeometry></mxCell><mxCell id="726" value="Incident - NEW" style="swimlane;fontStyle=1;align=center;verticalAlign=top;childLayout=stackLayout;horizontal=1;startSize=34;horizontalStack=0;resizeParent=1;resizeParentMax=0;resizeLast=0;collapsible=1;marginBottom=0;labelBackgroundColor=none;fillColor=#283C3E;fontSize=20;strokeColor=#283C3E;fontColor=#FFFFFF;" parent="706" vertex="1"><mxGeometry x="829" y="560" width="255" height="126" as="geometry"/></mxCell><mxCell id="727" value="APPROVAL_REQUEST" style="text;strokeColor=none;fillColor=#CCCCCC;align=left;verticalAlign=top;spacingLeft=4;spacingRight=4;overflow=hidden;rotatable=0;points=[[0,0.5],[1,0.5]];portConstraint=eastwest;fontColor=#333333;fontSize=20;fontStyle=1" parent="726" vertex="1"><mxGeometry y="34" width="255" height="39" as="geometry"/></mxCell><mxCell id="728" value="" style="line;strokeWidth=1;fillColor=none;align=left;verticalAlign=middle;spacingTop=-1;spacingLeft=3;spacingRight=3;rotatable=0;labelPosition=right;points=[];portConstraint=eastwest;fontStyle=1" parent="726" vertex="1"><mxGeometry y="73" width="255" height="8" as="geometry"/></mxCell><mxCell id="729" value="APPROVED_ACTION" style="text;strokeColor=none;fillColor=#FFFFFF;align=left;verticalAlign=top;spacingLeft=4;spacingRight=4;overflow=hidden;rotatable=0;points=[[0,0.5],[1,0.5]];portConstraint=eastwest;fontColor=#FF0000;fontSize=20;fontStyle=1" parent="726" vertex="1"><mxGeometry y="81" width="255" height="45" as="geometry"/></mxCell><mxCell id="707" value="6" style="" parent="0"/><mxCell id="730" value="Confirm work note" style="html=1;verticalAlign=bottom;endArrow=block;labelBackgroundColor=none;fontSize=20;fontColor=#333333;strokeWidth=2;strokeColor=#333333;fontStyle=1" parent="707" edge="1"><mxGeometry width="80" relative="1" as="geometry"><mxPoint x="1362" y="676" as="sourcePoint"/><mxPoint x="1087" y="676" as="targetPoint"/></mxGeometry></mxCell><mxCell id="708" value="7" style="" parent="0"/><mxCell id="731" value="Order action" style="html=1;verticalAlign=bottom;endArrow=block;labelBackgroundColor=none;fontSize=20;fontColor=#333333;strokeWidth=2;strokeColor=#333333;fontStyle=1" parent="708" target="732" edge="1"><mxGeometry width="80" relative="1" as="geometry"><mxPoint x="1376" y="807" as="sourcePoint"/><mxPoint x="858.0020000000004" y="782.0140000000001" as="targetPoint"/></mxGeometry></mxCell><mxCell id="732" value="" style="html=1;points=[];perimeter=orthogonalPerimeter;labelBackgroundColor=#FFFFFF;strokeColor=#333333;strokeWidth=2;fillColor=#FFFFFF;fontStyle=1" parent="708" vertex="1"><mxGeometry x="1697.5" y="808" width="13" height="46" as="geometry"/></mxCell><mxCell id="733" value="Report" style="html=1;verticalAlign=bottom;endArrow=block;labelBackgroundColor=none;fontSize=20;fontColor=#333333;strokeWidth=2;strokeColor=#333333;dashed=1;dashPattern=1 1;fontStyle=1;entryX=0.533;entryY=0.691;entryDx=0;entryDy=0;entryPerimeter=0;" parent="708" edge="1"><mxGeometry width="80" relative="1" as="geometry"><mxPoint x="1695" y="847.04" as="sourcePoint"/><mxPoint x="1376.9860000000003" y="846.2749999999996" as="targetPoint"/></mxGeometry></mxCell><mxCell id="750" value="Incident - In Progress" style="swimlane;fontStyle=1;align=center;verticalAlign=top;childLayout=stackLayout;horizontal=1;startSize=34;horizontalStack=0;resizeParent=1;resizeParentMax=0;resizeLast=0;collapsible=1;marginBottom=0;labelBackgroundColor=none;fillColor=#283C3E;fontSize=20;strokeColor=#283C3E;fontColor=#FF6666;" parent="708" vertex="1"><mxGeometry x="829" y="721" width="255" height="126" as="geometry"/></mxCell><mxCell id="751" value="APPROVAL_REQUEST" style="text;strokeColor=none;fillColor=#CCCCCC;align=left;verticalAlign=top;spacingLeft=4;spacingRight=4;overflow=hidden;rotatable=0;points=[[0,0.5],[1,0.5]];portConstraint=eastwest;fontColor=#333333;fontSize=20;fontStyle=1" parent="750" vertex="1"><mxGeometry y="34" width="255" height="39" as="geometry"/></mxCell><mxCell id="752" value="" style="line;strokeWidth=1;fillColor=none;align=left;verticalAlign=middle;spacingTop=-1;spacingLeft=3;spacingRight=3;rotatable=0;labelPosition=right;points=[];portConstraint=eastwest;fontStyle=1" parent="750" vertex="1"><mxGeometry y="73" width="255" height="8" as="geometry"/></mxCell><mxCell id="753" value="APPROVED_ACTION" style="text;strokeColor=none;fillColor=#CCCCCC;align=left;verticalAlign=top;spacingLeft=4;spacingRight=4;overflow=hidden;rotatable=0;points=[[0,0.5],[1,0.5]];portConstraint=eastwest;fontColor=#333333;fontSize=20;fontStyle=1" parent="750" vertex="1"><mxGeometry y="81" width="255" height="45" as="geometry"/></mxCell><mxCell id="754" value="Update status" style="html=1;verticalAlign=bottom;endArrow=block;labelBackgroundColor=none;fontSize=20;fontColor=#333333;strokeWidth=2;strokeColor=#333333;entryX=0.553;entryY=0.568;entryDx=0;entryDy=0;entryPerimeter=0;fontStyle=1" parent="708" target="715" edge="1"><mxGeometry width="80" relative="1" as="geometry"><mxPoint x="1362" y="741" as="sourcePoint"/><mxPoint x="1110.7650000000003" y="741.145" as="targetPoint"/></mxGeometry></mxCell><mxCell id="757" value="…" style="rounded=0;whiteSpace=wrap;html=1;labelBackgroundColor=none;fontSize=20;fontColor=#1A1A1A;strokeColor=none;strokeWidth=1;fillColor=none;opacity=20;fontStyle=1" parent="708" vertex="1"><mxGeometry x="1475" y="841" width="120" height="60" as="geometry"/></mxCell><mxCell id="709" value="8" style="" parent="0"/><mxCell id="739" value="Case: Rejected" style="shape=umlFrame;whiteSpace=wrap;html=1;labelBackgroundColor=none;fontSize=20;fontColor=#FF0000;strokeColor=#333333;strokeWidth=1;fillColor=#FFFFFF;width=161;height=25;fontStyle=1" parent="709" vertex="1"><mxGeometry x="102" y="904" width="1780" height="252" as="geometry"/></mxCell><mxCell id="737" value="" style="html=1;points=[];perimeter=orthogonalPerimeter;labelBackgroundColor=#FFFFFF;strokeColor=#333333;strokeWidth=2;fillColor=#FFFFFF;fontStyle=1" parent="709" vertex="1"><mxGeometry x="587.5" y="984" width="13" height="72" as="geometry"/></mxCell><mxCell id="738" value="Reject" style="html=1;verticalAlign=bottom;endArrow=block;labelBackgroundColor=none;fontSize=20;fontColor=#333333;strokeWidth=2;strokeColor=#333333;entryX=-0.05;entryY=0.012;entryDx=0;entryDy=0;entryPerimeter=0;fontStyle=1" parent="709" target="737" edge="1"><mxGeometry width="80" relative="1" as="geometry"><mxPoint x="200" y="985" as="sourcePoint"/><mxPoint x="749" y="988" as="targetPoint"/></mxGeometry></mxCell><mxCell id="710" value="9" style="" parent="0"/><mxCell id="740" value="Update work note" style="html=1;verticalAlign=bottom;endArrow=block;labelBackgroundColor=none;fontSize=20;fontColor=#333333;strokeWidth=2;strokeColor=#333333;entryX=-0.005;entryY=0.043;entryDx=0;entryDy=0;entryPerimeter=0;fontStyle=1;" parent="710" target="744" edge="1"><mxGeometry x="-0.0374" width="80" relative="1" as="geometry"><mxPoint x="602" y="1032" as="sourcePoint"/><mxPoint x="839" y="779.4999999999998" as="targetPoint"/><mxPoint as="offset"/></mxGeometry></mxCell><mxCell id="741" value="Incident - NEW" style="swimlane;fontStyle=1;align=center;verticalAlign=top;childLayout=stackLayout;horizontal=1;startSize=34;horizontalStack=0;resizeParent=1;resizeParentMax=0;resizeLast=0;collapsible=1;marginBottom=0;labelBackgroundColor=none;fillColor=#283C3E;fontSize=20;strokeColor=#283C3E;fontColor=#FFFFFF;" parent="710" vertex="1"><mxGeometry x="829" y="949" width="255" height="120" as="geometry"/></mxCell><mxCell id="742" value="APPROVAL_REQUEST" style="text;strokeColor=none;fillColor=#CCCCCC;align=left;verticalAlign=top;spacingLeft=4;spacingRight=4;overflow=hidden;rotatable=0;points=[[0,0.5],[1,0.5]];portConstraint=eastwest;fontColor=#333333;fontSize=20;fontStyle=1" parent="741" vertex="1"><mxGeometry y="34" width="255" height="39" as="geometry"/></mxCell><mxCell id="743" value="" style="line;strokeWidth=1;fillColor=#FFFFFF;align=left;verticalAlign=middle;spacingTop=-1;spacingLeft=3;spacingRight=3;rotatable=0;labelPosition=right;points=[];portConstraint=eastwest;fontStyle=1" parent="741" vertex="1"><mxGeometry y="73" width="255" height="8" as="geometry"/></mxCell><mxCell id="744" value="REJECTED_ACTION" style="text;strokeColor=none;fillColor=#FFFFFF;align=left;verticalAlign=top;spacingLeft=4;spacingRight=4;overflow=hidden;rotatable=0;points=[[0,0.5],[1,0.5]];portConstraint=eastwest;fontColor=#FF0000;fontSize=20;fontStyle=1" parent="741" vertex="1"><mxGeometry y="81" width="255" height="39" as="geometry"/></mxCell><mxCell id="734" value="10" style="" parent="0"/><mxCell id="745" value="Confirm work note" style="html=1;verticalAlign=bottom;endArrow=block;labelBackgroundColor=none;fontSize=20;fontColor=#333333;strokeWidth=2;strokeColor=#333333;fontStyle=1" parent="734" edge="1"><mxGeometry width="80" relative="1" as="geometry"><mxPoint x="1362" y="1060" as="sourcePoint"/><mxPoint x="1085" y="1060" as="targetPoint"/></mxGeometry></mxCell><mxCell id="735" value="11" style="" parent="0"/><mxCell id="746" value="" style="shape=umlDestroy;whiteSpace=wrap;html=1;strokeWidth=7;labelBackgroundColor=none;fontSize=20;fontColor=#FF0000;fillColor=#FFFFFF;strokeColor=#333333;fontStyle=1" parent="735" vertex="1"><mxGeometry x="1356" y="1110" width="30" height="30" as="geometry"/></mxCell></root></mxGraphModel></diagram></mxfile>